HIERARCHY
ROOT RootJoint
{
    OFFSET   0.000000   0.000000   0.000000
    CHANNELS 6 Xposition Yposition Zposition Xrotation Yrotation Zrotation
    JOINT pelvis_lowerback
    {
        OFFSET   0.000000   0.093605   0.000000
        CHANNELS 3 Xrotation Yrotation Zrotation
        JOINT lowerback_torso
        {
            OFFSET   0.000000   0.100000   0.000000
            CHANNELS 3 Xrotation Yrotation Zrotation
            JOINT torso_head
            {
                OFFSET   0.000000   0.282350   0.000000
                CHANNELS 3 Xrotation Yrotation Zrotation
                End Site
                {
                    OFFSET   0.000000   0.192650   0.000000
                }
            }
            JOINT rTorso_Clavicle
            {
                OFFSET  -0.001000   0.157500   0.000000
                CHANNELS 3 Xrotation Yrotation Zrotation
                JOINT rShoulder
                {
                    OFFSET  -0.117647   0.000000   0.000000
                    CHANNELS 3 Xrotation Yrotation Zrotation
                    JOINT rElbow
                    {
                        OFFSET  -0.245000   0.000000   0.000000
                        CHANNELS 3 Xrotation Yrotation Zrotation
                        JOINT rWrist
                        {
                            OFFSET  -0.240000   0.000000   0.000000
                            CHANNELS 3 Xrotation Yrotation Zrotation
                            End Site
                            {
                                OFFSET  -0.116353  -0.002500   0.000000
                            }
                        }
                    }
                }
            }
            JOINT lTorso_Clavicle
            {
                OFFSET   0.001000   0.157500   0.000000
                CHANNELS 3 Xrotation Yrotation Zrotation
                JOINT lShoulder
                {
                    OFFSET   0.117647   0.000000   0.000000
                    CHANNELS 3 Xrotation Yrotation Zrotation
                    JOINT lElbow
                    {
                        OFFSET   0.245000   0.000000   0.000000
                        CHANNELS 3 Xrotation Yrotation Zrotation
                        JOINT lWrist
                        {
                            OFFSET   0.240000   0.000000   0.000000
                            CHANNELS 3 Xrotation Yrotation Zrotation
                            End Site
                            {
                                OFFSET   0.116353  -0.002500   0.000000
                            }
                        }
                    }
                }
            }
        }
    }
    JOINT rHip
    {
        OFFSET  -0.100000  -0.051395   0.000000
        CHANNELS 3 Xrotation Yrotation Zrotation
        JOINT rKnee
        {
            OFFSET   0.000000  -0.410000   0.000000
            CHANNELS 3 Xrotation Yrotation Zrotation
            JOINT rAnkle
            {
                OFFSET   0.000000  -0.390000   0.000000
                CHANNELS 3 Xrotation Yrotation Zrotation
                JOINT rToeJoint
                {
                    OFFSET   0.000000  -0.050000   0.130000
                    CHANNELS 3 Xrotation Yrotation Zrotation
                    End Site
                    {
                        OFFSET  -0.010000   0.002000   0.060000
                    }
                }
            }
        }
    }
    JOINT lHip
    {
        OFFSET   0.100000  -0.051395   0.000000
        CHANNELS 3 Xrotation Yrotation Zrotation
        JOINT lKnee
        {
            OFFSET   0.000000  -0.410000   0.000000
            CHANNELS 3 Xrotation Yrotation Zrotation
            JOINT lAnkle
            {
                OFFSET   0.000000  -0.390000   0.000000
                CHANNELS 3 Xrotation Yrotation Zrotation
                JOINT lToeJoint
                {
                    OFFSET   0.000000  -0.050000   0.130000
                    CHANNELS 3 Xrotation Yrotation Zrotation
                    End Site
                    {
                        OFFSET   0.010000   0.002000   0.060000
                    }
                }
            }
        }
    }
}
MOTION
Frames: 11
Frame Time:   0.008333
 -2.336184   0.943251   4.017677   2.638584  -2.386362  -3.917263   8.692485   0.403080   3.066175   1.424160  -2.562890  -0.161625  -7.683204  -2.216055  -0.377716   0.582977   0.710492  -5.287809   8.362507   5.651936  59.926501  -0.028019  21.914796   0.012784   2.964252   1.010060   2.338000   6.380424  -0.859100   5.985110   9.841365 -14.004747 -55.266958  -0.022603 -20.480435  -0.016959   1.966248  -5.555424  -5.299861 -21.004268  -2.256322  -4.563261  48.356933   0.006041   0.000061  -3.715147  -6.520747   6.927260  -0.959133  -0.009389  -0.003158 -26.809430   1.860662   8.246433  48.091687   0.000191  -0.019208  23.998237   6.109116  -0.519869 -45.470613   0.000268   0.004376
 -2.337021   0.957792   4.022398   2.552074  -2.575509  -5.709617   7.122217   0.533645   5.140138   1.528956  -2.701941   0.075320  -7.047540  -2.279312  -1.030471   1.605598   1.010830  -7.023403   7.881308   6.154868  60.072944  -0.035678  23.241877   0.012873   2.935452   0.641531   2.654833   6.861146  -0.347962   6.823254   9.904954 -13.990415 -56.011904  -0.036159 -22.161967  -0.027323   1.846326  -5.542591  -5.283112 -19.917144  -3.172319  -2.618955  47.865599   0.006597   0.000801  -2.201905  -6.695410   7.332802  -0.535217  -0.009630  -0.004761 -25.182365   1.593625  10.130245  44.776878   0.004272  -0.021922  27.421584   5.975571  -1.132870 -45.376511   0.000374   0.003839
 -2.337673   0.972160   4.027213   2.484525  -2.827890  -7.528079   5.539291   0.636923   7.275426   1.585398  -2.786252   0.432099  -6.437783  -2.344332  -1.630970   2.553135   1.272926  -8.780525   7.418478   6.623613  60.112272  -0.041416  24.500397   0.013285   2.918941   0.408160   2.878153   7.321548   0.185713   7.629563   9.982489 -13.973076 -56.735880  -0.049029 -23.762120  -0.037334   1.700105  -5.822213  -5.343323 -18.855690  -4.065381  -0.606144  47.559291   0.006554   0.001294  -0.791723  -6.847534   7.717081  -0.201170  -0.009495  -0.005729 -23.493253   1.380967  12.034608  41.275942   0.009523  -0.020464  31.014260   5.863901  -1.710193 -45.301227   0.000383   0.003264
 -2.338134   0.986227   4.032006   2.456809  -3.116396  -9.260286   3.966495   0.692521   9.360444   1.575734  -2.832436   0.838303  -5.874574  -2.411574  -2.172476   3.428810   1.498805 -10.484328   6.974577   7.060120  60.105207  -0.044865  25.681174   0.013768   2.903680   0.230480   2.998216   7.752867   0.715526   8.419862  10.073583 -13.943998 -57.390614  -0.060460 -25.253379  -0.046172   1.553973  -6.135568  -5.395611 -17.828415  -4.885962   1.340511  47.334052   0.006224   0.001611   0.527027  -6.979996   8.079705   0.099301  -0.009230  -0.006371 -21.809154   1.238027  13.845766  37.654708   0.015080  -0.015230  34.683813   5.740264  -2.266550 -44.455709   0.001184   0.003835
 -2.338424   0.999901   4.036689   2.468021  -3.420415 -10.883410   2.426896   0.697524  11.367321   1.510698  -2.853168   1.269570  -5.357653  -2.479254  -2.667099   4.238432   1.694816 -12.107205   6.548279   7.469905  60.078497  -0.046248  26.788763   0.014067   2.888533   0.090985   3.055426   8.150412   1.230891   9.196430  10.171027 -13.905574 -57.972773  -0.070002 -26.641313  -0.053483   1.414855  -6.427102  -5.403631 -16.835159  -5.627905   3.191712  47.151136   0.005782   0.001798   1.759523  -7.095714   8.421142   0.372313  -0.008861  -0.006720 -20.171640   1.162658  15.543943  33.965620   0.020011  -0.007631  38.398554   5.590356  -2.805641 -42.543432   0.002808   0.004111
 -2.338560   1.013037   4.041190   2.501730  -3.725492 -12.402621   0.947286   0.656113  13.292713   1.409682  -2.856404   1.717132  -4.882265  -2.546383  -3.121729   4.986838   1.866960 -13.643544   6.138401   7.856537  60.043548  -0.045986  27.828378   0.014041   2.872697  -0.012684   3.079006   8.512554   1.725613   9.959359  10.268653 -13.861372 -58.488521  -0.077477 -27.934747  -0.059114   1.283003  -6.696628  -5.362446 -15.868440  -6.295322   4.947768  47.001530   0.005274   0.001870   2.911004  -7.196750   8.742314   0.620038  -0.008404  -0.006818 -18.629772   1.139306  17.137660  30.300997   0.023620   0.000831  42.144779   5.414893  -3.325942 -39.425843   0.004968   0.002907
 -2.338502   1.025498   4.045477   2.535685  -4.033454 -13.830514  -0.451563   0.579796  15.145280   1.293071  -2.844492   2.176870  -4.442871  -2.612251  -3.540785   5.678380   2.020138 -15.095563   5.744410   8.221673  60.002588  -0.044492  28.804021   0.013689   2.856243  -0.084629   3.080698   8.841149   2.197361  10.702522  10.363266 -13.814054 -58.947988  -0.082862 -29.141252  -0.063047   1.157766  -6.949976  -5.278871 -14.919389  -6.892252   6.612290  46.882104   0.004728   0.001856   3.986813  -7.284799   9.044089   0.845727  -0.007897  -0.006745 -17.213948   1.163776  18.591176  26.776424   0.024095   0.009572  45.919425   5.163428  -3.835095 -35.135531   0.009934  -0.002675
 -2.337243   1.037477   4.048342   2.826462  -4.298485 -13.056573  -1.785439   0.764719  14.266803   1.178529  -2.913122   2.608971  -4.222856  -2.351106  -3.676073   6.009756   2.053471 -15.157814   5.686285   8.661968  59.647159  -0.038591  30.010481   0.010981   2.893016  -0.188108   2.451718   9.125688   2.115702  10.773837  10.577838 -13.602596 -58.602540  -0.083555 -30.652015  -0.062694   1.016197  -6.607551  -4.551561 -14.484874  -7.261882   5.620765  45.652762   0.007131   0.010950   6.210993  -7.328724   9.665897   1.490574  -0.010971  -0.011795 -16.578377   1.398055  17.457049  25.224127   0.016290   0.016498  43.590945   5.164131  -4.213585 -30.013752   0.040019  -0.023931
 -2.335939   1.048958   4.050381   3.107324  -4.578939 -11.953528  -2.899957   1.038121  13.105793   1.121542  -2.988947   2.769486  -4.016387  -2.085242  -3.851969   6.309382   2.145911 -14.954643   5.583645   9.134212  59.507162  -0.030024  31.163854   0.006845   2.917109  -0.108937   2.027996   9.318543   1.911708  10.690233  10.665405 -13.474499 -58.349926  -0.076131 -32.097497  -0.057767   0.872200  -6.379538  -3.805331 -14.201140  -7.517037   4.249263  44.009491   0.008677   0.021685   8.291436  -7.359032  10.244146   2.208785  -0.014001  -0.015840 -16.116509   1.659141  16.043506  24.073450   0.010849   0.019439  41.379880   5.166895  -4.570979 -25.228895   0.057219  -0.044178
 -2.334829   1.059851   4.051846   3.360219  -4.866040 -10.821268  -3.832300   1.337933  11.919667   1.131347  -3.071656   2.807762  -3.809939  -1.836055  -4.043472   6.586471   2.276263 -14.650718   5.459915   9.613459  59.478317  -0.021471  32.256872   0.002587   2.932847   0.075980   1.833582   9.462938   1.651080  10.491925  10.677712 -13.411355 -58.210161  -0.064226 -33.477096  -0.050049   0.718443  -6.312871  -3.213343 -14.050128  -7.740815   2.854254  42.301195   0.009213   0.030308  10.226138  -7.370553  10.784590   2.860235  -0.015987  -0.017762 -15.715177   1.896079  14.709286  23.059408   0.007478   0.020543  39.320739   5.179551  -4.907898 -20.792140   0.062735  -0.059222
 -2.333944   1.070099   4.052911   3.584965  -5.139719  -9.721122  -4.616916   1.636813  10.751980   1.194995  -3.167436   2.776794  -3.604860  -1.605050  -4.233772   6.847435   2.418156 -14.305094   5.333506  10.080054  59.507112  -0.014034  33.284345  -0.001127   2.944527   0.307037   1.782528   9.578669   1.361979  10.213541  10.646389 -13.392905 -58.154425  -0.050439 -34.784545  -0.041050   0.561495  -6.361503  -2.780949 -14.004673  -7.951923   1.507401  40.638307   0.008978   0.036132  12.027856  -7.364789  11.290404   3.446900  -0.017041  -0.018197 -15.343997   2.101891  13.511493  22.124251   0.005571   0.020503  37.400183   5.202190  -5.223788 -16.728905   0.060557  -0.068102
